<svg width="59" height="68" viewBox="0 0 59 68" fill="none" xmlns="http://www.w3.org/2000/svg">
<mask id="mask0_30_15" style="mask-type:alpha" maskUnits="userSpaceOnUse" x="0" y="0" width="59" height="68">
<path d="M23.9053 1.76193C27.3673 -0.334054 31.6327 -0.334056 35.0947 1.76193L53.4053 12.8477C56.8673 14.9437 59 18.8172 59 23.0092V45.1807C59 49.3727 56.8673 53.2463 53.4053 55.3422L35.0947 66.428C31.6327 68.524 27.3673 68.524 23.9053 66.428L5.59468 55.3422C2.13268 53.2463 0 49.3727 0 45.1807V23.0092C0 18.8172 2.13268 14.9437 5.59467 12.8477L23.9053 1.76193Z" fill="#C4C4C4"/>
</mask>
<g mask="url(#mask0_30_15)">
<path d="M29.4917 -2.20898L61.828 17.3683L45.4637 26.608L38.7043 22.7417L32.5594 23.3861L17.197 17.5867L13.5101 22.7417L11.6666 25.3193L7.97963 22.7417L-2.84457 17.3683L29.4917 -2.20898Z" fill="url(#paint0_linear_30_15)"/>
<path d="M-0.254395 17.6459L12.2899 24.0248L19.6638 42.7118L19.6638 43.3562L22.1218 46.578L33.1827 55.5993L29.4994 71.6872L-0.254395 53.6735L-0.254395 17.6459Z" fill="url(#paint1_linear_30_15)"/>
<path d="M39.3185 43.3545L47.3069 25.312L59.2452 17.6491L59.2452 53.6767L29.4914 71.6905L28.8721 55.5977L39.3185 43.3545Z" fill="url(#paint2_linear_30_15)"/>
<path d="M29.4904 12.4397C24.406 12.4397 19.7724 14.4634 16.2817 17.7844L19.1156 43.3696C19.8906 43.7447 24.3354 45.3029 25.189 45.3029H31.3339C32.42 45.3029 39.9368 42.8753 39.9368 44.0142L39.3223 41.3076C39.3223 42.4464 38.442 43.3696 37.356 43.3696H21.6249C20.5389 43.3696 19.6586 42.4464 19.6586 41.3076V31.3252C19.6586 30.4301 19.4733 29.5457 19.1156 28.7328L16.2817 17.7844C13.1146 21.4447 9.82666 27.728 9.82666 33.0598C9.82666 44.448 18.6303 53.6798 29.4904 53.6798C40.3506 53.6798 49.1542 44.448 49.1542 33.0598C49.1542 21.6715 40.3506 12.4397 29.4904 12.4397Z" fill="url(#paint3_linear_30_15)"/>
<path d="M19.8 29.228C19.764 29.036 19.608 28.568 19.488 28.316C19.932 28.256 20.484 27.992 21.264 27.572C22.116 27.152 24.78 25.532 26.82 23.732L27.636 24.344C25.344 26.252 22.872 27.752 20.508 28.808V28.832C20.508 28.832 19.8 29.036 19.8 29.228ZM19.8 29.228L19.776 28.508L20.424 28.16L27.456 27.656C27.324 27.896 27.192 28.292 27.132 28.484C20.892 28.976 20.232 29.06 19.8 29.228ZM20.184 26.228C20.136 26.036 19.992 25.568 19.896 25.316C20.184 25.268 20.52 25.052 20.952 24.752C21.42 24.428 22.92 23.216 24 21.968L24.84 22.496C23.592 23.768 22.188 24.944 20.844 25.748V25.772C20.844 25.772 20.184 26.036 20.184 26.228ZM20.184 26.228L20.16 25.556L20.7 25.268L25.62 24.932C25.536 25.172 25.464 25.508 25.452 25.7C21 26.036 20.508 26.108 20.184 26.228ZM27.72 26.528L28.704 26.852C27.072 30.524 23.832 32.108 19.356 32.936C19.272 32.684 19.02 32.24 18.852 32.012C23.244 31.352 26.352 29.888 27.72 26.528Z" fill="white"/>
<path d="M31.736 37.484V39.008H38.384V37.484H31.736ZM31.736 35.216V36.716H38.384V35.216H31.736ZM30.848 34.4H39.32V39.824H30.848V34.4ZM29.648 43.784H40.364V44.624H29.648V43.784ZM30.452 41.204H39.716V42.056H30.452V41.204ZM34.604 34.916H35.468V39.692H35.516V44.264H34.556V39.692H34.604V34.916Z" fill="white"/>
</g>
<defs>
<linearGradient id="paint0_linear_30_15" x1="28.8724" y1="0.832928" x2="28.2565" y2="24.3682" gradientUnits="userSpaceOnUse">
<stop stop-color="#4E00D3"/>
<stop offset="1" stop-color="#7A36F0"/>
</linearGradient>
<linearGradient id="paint1_linear_30_15" x1="29.4957" y1="48.5112" x2="10.6982" y2="27.0184" gradientUnits="userSpaceOnUse">
<stop stop-color="#5508D8"/>
<stop offset="1" stop-color="#7935EF"/>
</linearGradient>
<linearGradient id="paint2_linear_30_15" x1="29.4866" y1="51.087" x2="47.5295" y2="28.0882" gradientUnits="userSpaceOnUse">
<stop stop-color="#5205D6"/>
<stop offset="1" stop-color="#7A35F0"/>
</linearGradient>
<linearGradient id="paint3_linear_30_15" x1="29.4904" y1="12.4397" x2="29.4904" y2="53.6798" gradientUnits="userSpaceOnUse">
<stop stop-color="#7935EF"/>
<stop offset="1" stop-color="#6117E0"/>
</linearGradient>
</defs>
</svg>
